PathFileType  4	(X/Y/Z) C:\Users\antoi\Documents\MyRepositories\mobilecap\ResultsAnalysis
DataRate	CameraRate	NumFrames	NumMarkers	Units	OrigDataRate	OrigDataStartFrame	OrigNumFrames
100.0	100.0	4	51	mm	100.0	145	231
Frame#	Time	r_knee			r_shank_antsup			r_ankle			r_calc			r_5meta			r_toe			L_knee			L_shank_antsup			L_ankle			L_calc			L_5meta			L_toe			r_sh2			r_sh3			r_sh4			L_sh2			L_sh3			r_thigh1			r_thigh2			r_thigh3			r_thigh4			r_thigh5			L_thigh1			L_thigh2			L_thigh3			L_thigh4			r.ASIS			r.PSIS			L.ASIS			L.PSIS			C7			R_Shoulder			L_Shoulder			R_Sternum			L_Sternum			R_humerus			R_elbow_med			R_elbow_lat			R_forearm			R_wrist_radius			R_wrist_ulna			L_humerus			L_elbow_med			L_elbow_lat			L_forearm			L_wrist_radius			L_wrist_ulna			R_HJC			L_HJC			R_HJC_reg			L_HJC_reg			
		X1	Y1	Z1	X2	Y2	Z2	X3	Y3	Z3	X4	Y4	Z4	X5	Y5	Z5	X6	Y6	Z6	X7	Y7	Z7	X8	Y8	Z8	X9	Y9	Z9	X10	Y10	Z10	X11	Y11	Z11	X12	Y12	Z12	X13	Y13	Z13	X14	Y14	Z14	X15	Y15	Z15	X16	Y16	Z16	X17	Y17	Z17	X18	Y18	Z18	X19	Y19	Z19	X20	Y20	Z20	X21	Y21	Z21	X22	Y22	Z22	X23	Y23	Z23	X24	Y24	Z24	X25	Y25	Z25	X26	Y26	Z26	X27	Y27	Z27	X28	Y28	Z28	X29	Y29	Z29	X30	Y30	Z30	X31	Y31	Z31	X32	Y32	Z32	X33	Y33	Z33	X34	Y34	Z34	X35	Y35	Z35	X36	Y36	Z36	X37	Y37	Z37	X38	Y38	Z38	X39	Y39	Z39	X40	Y40	Z40	X41	Y41	Z41	X42	Y42	Z42	X43	Y43	Z43	X44	Y44	Z44	X45	Y45	Z45	X46	Y46	Z46	X47	Y47	Z47	X48	Y48	Z48	X49	Y49	Z49	X50	Y50	Z50	X51	Y51	Z51	

145	1.44000000	-74.46814	399.08090	-409.98289	-82.73790	329.60145	-388.04797	-272.26128	100.03860	-439.34423	-346.72075	68.99820	-485.14411	-187.66896	44.45534	-398.79263	-135.41629	58.39335	-449.75876	-87.30527	390.16211	-806.41951	-78.25088	313.99324	-814.28070	-295.73335	107.72726	-770.69838	-371.63425	80.23984	-718.94226	-223.80758	44.50447	-811.20940	-163.88790	57.66679	-762.48778	-147.00777	236.04626	-391.07320	-142.50991	372.04059	-405.10787	-214.71928	281.05216	-410.54375	-146.20065	371.73150	-824.86964	-215.70800	271.09211	-818.07524	-286.05138	611.40018	-441.85784	-190.37986	559.05706	-420.77373	-198.97721	507.73107	-379.63824	-341.95256	535.58585	-378.34639	-243.49418	472.43027	-380.95155	-288.55860	587.27719	-769.40843	-167.86766	525.14110	-790.61357	-349.56188	488.91645	-786.41101	-220.15899	430.33030	-802.78074	-310.09128	630.96561	-460.27838	-475.15735	705.88273	-539.27084	-307.64485	616.99404	-715.92416	-478.32333	695.48556	-645.95640	-82.29764	1012.20582	-608.01817	-52.49778	941.54783	-481.51745	-47.77518	944.80081	-741.39930	-45.65959	863.29424	-584.70044	-41.61827	864.01254	-629.40796	47.68823	788.92022	-373.79571	81.96028	690.10352	-416.19495	91.98954	719.82483	-342.36360	156.23214	795.41902	-409.62499	211.01921	856.21869	-481.04121	248.47994	830.85632	-476.47599	7.15825	878.91465	-811.51999	71.06289	682.50964	-896.03006	77.93576	737.37424	-945.89079	123.92204	808.58078	-867.21992	163.25539	858.03044	-769.25697	198.39943	846.60451	-778.35478	-396.54991	580.68101	-485.73891	-391.23764	570.60062	-685.70679	-394.03843	579.51424	-488.97226	-399.02768	563.12985	-657.08776	
146	1.45000000	-73.10034	399.23491	-411.22466	-81.19932	329.61954	-389.17994	-271.71076	101.27463	-441.37825	-346.01609	70.43893	-487.20925	-187.77285	44.97014	-399.57842	-135.03553	58.33871	-450.29442	-85.54548	392.26963	-806.37756	-76.47048	315.95985	-814.63818	-294.36844	109.51068	-770.77719	-370.43957	83.52159	-719.04980	-223.34763	44.93532	-811.11737	-163.19515	57.60377	-762.74012	-145.35787	236.10657	-392.71337	-140.96397	372.07982	-406.07146	-213.18695	281.10922	-411.95167	-144.34382	374.00772	-825.06985	-213.95595	273.39270	-818.18406	-280.14646	617.22470	-441.22625	-185.15952	562.76436	-420.65526	-195.09735	511.53709	-379.41703	-337.42388	542.39188	-378.64626	-240.46715	477.03904	-381.58872	-283.05404	593.25278	-769.26536	-163.59639	528.88405	-791.61192	-345.89985	496.03956	-785.30750	-217.77425	434.89216	-802.44022	-304.66130	640.66152	-460.59629	-470.53604	714.73739	-538.79089	-302.51592	626.66229	-716.26509	-473.82536	704.38742	-645.51691	-84.25857	1026.76678	-609.10023	-51.51941	959.30561	-483.52590	-47.09759	962.21446	-740.94775	-43.53769	878.87447	-585.42076	-39.40239	879.67268	-630.14706	56.21270	815.88927	-372.45254	97.72695	715.42111	-410.97784	103.96325	750.42617	-338.89450	160.48865	830.48691	-406.63507	208.67283	896.05197	-478.98714	248.40701	872.93565	-475.60578	11.46607	901.17810	-810.43022	89.54472	709.98686	-894.29640	92.58783	765.21073	-944.28802	132.01651	840.15678	-865.71364	166.78494	893.13630	-767.68107	202.62793	884.52044	-776.52475	-390.87965	589.88646	-485.70787	-386.06641	579.94122	-685.69519	-388.37064	588.61959	-489.17558	-393.55241	572.31468	-657.30735	
147	1.46000000	-71.88767	399.60025	-412.50714	-80.38049	330.03038	-390.16838	-271.05978	102.46045	-443.28712	-345.36110	72.22965	-489.02048	-187.77021	45.43087	-400.42583	-134.61866	58.25078	-450.79726	-83.88335	394.90459	-806.84999	-74.90070	318.48566	-815.41563	-292.72174	111.45667	-771.15382	-369.13849	87.13924	-719.37269	-222.80556	45.33177	-811.01810	-162.47290	57.40149	-762.83459	-144.41133	236.64204	-394.19022	-139.96095	372.48385	-407.20844	-212.03876	281.33515	-413.88125	-142.73748	376.67159	-825.86060	-212.47294	275.87118	-818.54015	-274.18593	623.93850	-441.39395	-179.51006	567.01949	-420.72402	-190.99134	515.91172	-379.32168	-332.40674	550.02806	-379.22540	-237.15243	482.30419	-382.21546	-277.06251	600.38625	-769.64980	-159.26591	533.36363	-792.68427	-342.07520	504.32029	-784.46566	-215.40379	440.38593	-802.46957	-298.89520	651.17912	-460.71112	-465.63462	724.25851	-538.28566	-296.92814	637.36656	-716.45593	-469.13873	713.98103	-645.15731	-86.29767	1042.56660	-610.19726	-51.08039	978.75976	-485.31202	-46.90975	980.74821	-740.29806	-41.53309	895.72683	-586.43246	-37.47307	896.61741	-631.15253	63.25345	844.72652	-370.65821	112.86060	739.57027	-402.78960	114.08398	783.15619	-334.67091	163.02250	866.55567	-403.36565	205.90727	935.26171	-476.26650	245.80921	914.84495	-473.96552	14.83444	924.79059	-809.65561	106.37303	739.77705	-892.74604	105.43217	794.77324	-942.81527	138.44678	873.08475	-864.59868	168.60431	928.88947	-766.22260	205.00506	923.17747	-775.15318	-384.84215	599.84096	-485.64919	-380.36806	590.14108	-685.65656	-382.20145	598.56190	-489.13019	-387.71521	582.38898	-657.30691	
148	1.47000000	-70.58879	400.85958	-413.50973	-79.93206	331.22859	-391.02913	-270.13857	103.79743	-444.64278	-344.52297	74.47630	-490.20092	-187.53819	45.86952	-401.11336	-134.12500	58.13356	-451.17555	-82.40081	398.09441	-808.00379	-73.64062	321.45574	-816.54714	-290.91327	113.52343	-771.78235	-367.74099	90.99709	-719.88383	-222.20551	45.74929	-810.93046	-161.81760	57.02258	-762.81618	-143.89482	237.84175	-395.27921	-139.29472	373.60271	-408.69825	-211.43442	282.40273	-415.75844	-141.47234	379.58538	-826.89391	-211.23363	278.60901	-819.14642	-267.31276	631.41168	-441.66672	-173.56110	571.67803	-420.93079	-186.49013	520.82195	-379.60808	-326.95832	558.49046	-379.96334	-233.47423	488.25796	-382.86260	-270.63111	608.52824	-770.41345	-154.80432	538.50352	-793.97590	-338.08641	513.85653	-784.11346	-213.07637	446.75480	-802.75733	-292.70259	662.60237	-460.51229	-460.37712	734.42293	-537.88664	-290.95212	649.01516	-716.45988	-464.13388	724.23041	-644.84182	-89.19766	1059.34145	-611.10469	-51.32355	999.17919	-486.89222	-47.16703	1000.44685	-739.70040	-39.56363	913.97942	-587.29670	-35.45053	915.09975	-631.98787	68.48396	875.15361	-368.45319	125.26218	765.86123	-393.19284	121.91874	817.38724	-329.94840	164.01428	902.93435	-399.51506	202.04941	973.83505	-473.11712	241.62499	956.21833	-471.45903	17.24804	949.50029	-808.72612	121.39218	771.50248	-891.11472	116.67614	825.83242	-941.54391	143.34553	907.08779	-863.77218	168.84980	965.00518	-764.80496	205.70692	962.11713	-773.93081	-378.38139	610.61012	-485.48751	-374.10784	601.11452	-685.50920	-375.52808	609.29435	-488.75744	-381.43973	593.25569	-657.05865	
